PathFileType	4	(X/Y/Z)	C:\Users\italobelli\Desktop\GitHub\PTbot_officialCBL\Personal_Results\FLX23_noisy1.trc
DataRate	CameraRate	NumFrames	NumMarkers	Units	OrigDataRate	OrigDataStartFrame	OrigNumFrames
106.533333	106.533333	17	9	m	106.533333	701	800
Frame#	Time		gu		centelbow		EpL		centpxt8		centijc7		ij		ts		aa		ai
			X1	Y1	Z1	X2	Y2	Z2	X3	Y3	Z3	X4	Y4	Z4	X5	Y5	Z5	X6	Y6	Z6	X7	Y7	Z7	X8	Y8	Z8	X9	Y9	Z9

701	6.5707	-0.068997	-0.011014	0.17237	-0.14453	-0.2583	0.193	-0.12487	-0.25792	0.21844	-0.046816	-0.15316	-0.008669	-0.046816	0.031938	-0.008669	0	0	0	-0.13068	0.029684	0.055382	-0.10089	0.025557	0.1708	-0.14844	-0.082297	0.061451
702	6.5801	-0.069086	-0.011078	0.17232	-0.14439	-0.25854	0.19311	-0.12475	-0.25814	0.21856	-0.046816	-0.15316	-0.008669	-0.046816	0.031938	-0.008669	0	0	0	-0.13071	0.029692	0.055354	-0.10095	0.025516	0.17077	-0.14849	-0.082291	0.061384
703	6.5895	-0.069185	-0.011144	0.17227	-0.14425	-0.25878	0.19323	-0.12464	-0.25835	0.21869	-0.046816	-0.15316	-0.008669	-0.046816	0.031938	-0.008669	0	0	0	-0.13075	0.0297	0.055326	-0.101	0.025474	0.17074	-0.14855	-0.082284	0.061314
704	6.5989	-0.069293	-0.011209	0.17221	-0.1441	-0.25902	0.19336	-0.12452	-0.25857	0.21882	-0.046816	-0.15316	-0.008669	-0.046816	0.031938	-0.008669	0	0	0	-0.13079	0.029707	0.055297	-0.10106	0.025432	0.17072	-0.14862	-0.082278	0.061243
705	6.6083	-0.06941	-0.011276	0.17214	-0.14395	-0.25927	0.19349	-0.1244	-0.25879	0.21896	-0.046816	-0.15316	-0.008669	-0.046816	0.031938	-0.008669	0	0	0	-0.13084	0.029714	0.055268	-0.10113	0.025389	0.17069	-0.14868	-0.082273	0.061171
706	6.6176	-0.069536	-0.011343	0.17207	-0.1438	-0.25951	0.19362	-0.12427	-0.25901	0.21911	-0.046816	-0.15316	-0.008669	-0.046816	0.031938	-0.008669	0	0	0	-0.13089	0.02972	0.055238	-0.10119	0.025346	0.17066	-0.14875	-0.082267	0.061096
707	6.627	-0.06967	-0.011411	0.172	-0.14364	-0.25975	0.19376	-0.12414	-0.25923	0.21926	-0.046816	-0.15316	-0.008669	-0.046816	0.031938	-0.008669	0	0	0	-0.13094	0.029726	0.055208	-0.10127	0.025302	0.17063	-0.14882	-0.082262	0.06102
708	6.6364	-0.069811	-0.011479	0.17192	-0.14349	-0.26	0.19391	-0.12401	-0.25945	0.21941	-0.046816	-0.15316	-0.008669	-0.046816	0.031938	-0.008669	0	0	0	-0.131	0.029732	0.055178	-0.10134	0.025258	0.1706	-0.1489	-0.082257	0.060943
709	6.6458	-0.06996	-0.011548	0.17184	-0.14333	-0.26024	0.19406	-0.12388	-0.25967	0.21957	-0.046816	-0.15316	-0.008669	-0.046816	0.031938	-0.008669	0	0	0	-0.13106	0.029737	0.055148	-0.10142	0.025214	0.17057	-0.14897	-0.082253	0.060865
710	6.6552	-0.070115	-0.011617	0.17175	-0.14317	-0.26048	0.19421	-0.12375	-0.25988	0.21974	-0.046816	-0.15316	-0.008669	-0.046816	0.031938	-0.008669	0	0	0	-0.13112	0.029742	0.055117	-0.1015	0.025169	0.17054	-0.14906	-0.082249	0.060785
711	6.6646	-0.070276	-0.011686	0.17166	-0.143	-0.26072	0.19436	-0.12361	-0.2601	0.2199	-0.046816	-0.15316	-0.008669	-0.046816	0.031938	-0.008669	0	0	0	-0.13119	0.029747	0.055087	-0.10158	0.025124	0.17051	-0.14914	-0.082245	0.060704
712	6.674	-0.070443	-0.011756	0.17157	-0.14284	-0.26096	0.19452	-0.12347	-0.26031	0.22008	-0.046816	-0.15316	-0.008669	-0.046816	0.031938	-0.008669	0	0	0	-0.13126	0.029751	0.055056	-0.10166	0.025078	0.17048	-0.14922	-0.082241	0.060622
713	6.6834	-0.070615	-0.011827	0.17147	-0.14267	-0.26121	0.19469	-0.12333	-0.26052	0.22025	-0.046816	-0.15316	-0.008669	-0.046816	0.031938	-0.008669	0	0	0	-0.13133	0.029755	0.055025	-0.10175	0.025033	0.17045	-0.14931	-0.082238	0.06054
714	6.6927	-0.070792	-0.011897	0.17137	-0.1425	-0.26144	0.19485	-0.12319	-0.26074	0.22043	-0.046816	-0.15316	-0.008669	-0.046816	0.031938	-0.008669	0	0	0	-0.1314	0.029758	0.054994	-0.10183	0.024987	0.17042	-0.1494	-0.082235	0.060457
715	6.7021	-0.070974	-0.011968	0.17127	-0.14233	-0.26168	0.19502	-0.12304	-0.26094	0.22061	-0.046816	-0.15316	-0.008669	-0.046816	0.031938	-0.008669	0	0	0	-0.13148	0.029761	0.054962	-0.10192	0.02494	0.17039	-0.14949	-0.082232	0.060373
716	6.7115	-0.071159	-0.012039	0.17117	-0.14216	-0.26192	0.19519	-0.12289	-0.26115	0.22079	-0.046816	-0.15316	-0.008669	-0.046816	0.031938	-0.008669	0	0	0	-0.13155	0.029763	0.054931	-0.10201	0.024894	0.17036	-0.14958	-0.08223	0.060289
717	6.7209	-0.071347	-0.01211	0.17106	-0.14198	-0.26215	0.19536	-0.12274	-0.26135	0.22097	-0.046816	-0.15316	-0.008669	-0.046816	0.031938	-0.008669	0	0	0	-0.13163	0.029766	0.0549	-0.10211	0.024847	0.17033	-0.14967	-0.082228	0.060205
